<svg width="0" height="0" class="hidden">
  <symbol fill="none" xmlns="http://www.w3.org/2000/svg" viewBox="0 0 24 24" id="inst">
    <path d="M8.44444 4C5.99378 4 4 5.99378 4 8.44444V15.5556C4 18.0062 5.99378 20 8.44444 20H15.5556C18.0062 20 20 18.0062 20 15.5556V8.44444C20 5.99378 18.0062 4 15.5556 4H8.44444ZM8.44444 5.77778H15.5556C17.0258 5.77778 18.2222 6.97422 18.2222 8.44444V15.5556C18.2222 17.0258 17.0258 18.2222 15.5556 18.2222H8.44444C6.97422 18.2222 5.77778 17.0258 5.77778 15.5556V8.44444C5.77778 6.97422 6.97422 5.77778 8.44444 5.77778ZM16.4444 6.66667C16.2087 6.66667 15.9826 6.76032 15.8159 6.92702C15.6492 7.09372 15.5556 7.31981 15.5556 7.55556C15.5556 7.7913 15.6492 8.0174 15.8159 8.18409C15.9826 8.35079 16.2087 8.44444 16.4444 8.44444C16.6802 8.44444 16.9063 8.35079 17.073 8.18409C17.2397 8.0174 17.3333 7.7913 17.3333 7.55556C17.3333 7.31981 17.2397 7.09372 17.073 6.92702C16.9063 6.76032 16.6802 6.66667 16.4444 6.66667ZM12 7.55556C9.54933 7.55556 7.55556 9.54933 7.55556 12C7.55556 14.4507 9.54933 16.4444 12 16.4444C14.4507 16.4444 16.4444 14.4507 16.4444 12C16.4444 9.54933 14.4507 7.55556 12 7.55556ZM12 9.33333C13.4702 9.33333 14.6667 10.5298 14.6667 12C14.6667 13.4702 13.4702 14.6667 12 14.6667C10.5298 14.6667 9.33333 13.4702 9.33333 12C9.33333 10.5298 10.5298 9.33333 12 9.33333Z" fill="#5C8EE6"></path>
  </symbol>
  <symbol fill="none" xmlns="http://www.w3.org/2000/svg" viewBox="0 0 24 24" id="mail">
    <path d="M4.3125 9.96875C5.03125 10.5312 5.9375 11.2188 9.125 13.5312C9.75 14 10.9062 15.0312 12 15.0312C13.125 15.0312 14.25 14 14.9062 13.5312C18.0938 11.2188 19 10.5312 19.7188 9.96875C19.8438 9.875 20 9.96875 20 10.125V16.5C20 17.3438 19.3438 18 18.5 18H5.5C4.6875 18 4 17.3438 4 16.5V10.125C4 9.96875 4.1875 9.875 4.3125 9.96875ZM12 14C11.2812 14.0312 10.25 13.0938 9.71875 12.7188C5.5625 9.71875 5.25 9.4375 4.3125 8.6875C4.125 8.5625 4 8.34375 4 8.09375V7.5C4 6.6875 4.6875 6 5.5 6H18.5C19.3438 6 20 6.6875 20 7.5V8.09375C20 8.34375 19.9062 8.5625 19.7188 8.6875C18.7812 9.4375 18.4688 9.71875 14.3125 12.7188C13.7812 13.0938 12.75 14.0312 12 14Z" fill="#5C8EE6"></path>
  </symbol>
  <symbol fill="none" xmlns="http://www.w3.org/2000/svg" viewBox="0 0 24 24" id="mark">
    <path d="M12.625 19.6875C12.3438 20.125 11.6875 20.125 11.4062 19.6875C6.84375 13.125 6 12.4375 6 10C6 6.6875 8.6875 4 12 4C15.3438 4 18 6.6875 18 10C18 12.4375 17.1875 13.125 12.625 19.6875ZM12 12.5C13.4062 12.5 14.5 11.4062 14.5 10C14.5 8.625 13.4062 7.5 12 7.5C10.625 7.5 9.5 8.625 9.5 10C9.5 11.4062 10.625 12.5 12 12.5Z" fill="#5C8EE6"></path>
  </symbol>
  <symbol fill="none" xmlns="http://www.w3.org/2000/svg" viewBox="0 0 24 24" id="vk">
    <path d="M21.4439 16.7569C20.6455 15.32 18.5889 13.5935 17.7398 12.8422C17.5074 12.6365 17.4826 12.2806 17.694 12.0531C19.3144 10.3119 20.6104 8.31123 21.0565 7.1023C21.2533 6.56826 20.8459 6.004 20.2719 6.004H18.6044C18.0548 6.004 17.7331 6.20127 17.5799 6.51538C16.2332 9.27491 15.078 10.4692 14.2694 11.1672C13.8167 11.5581 13.1107 11.2343 13.1107 10.6393C13.1107 9.49306 13.1107 8.01133 13.1107 6.96057C13.1107 6.45096 12.6939 6.03865 12.1799 6.03865L9.13379 6.004C8.75036 6.004 8.53132 6.43808 8.76147 6.74242L9.26441 7.4644C9.45368 7.71454 9.55587 8.01888 9.55587 8.33122L9.55321 11.5826C9.55321 12.1482 8.86766 12.4245 8.46068 12.0282C7.08381 10.6873 5.88909 7.94913 5.45901 6.63979C5.33461 6.2608 4.97962 6.00489 4.57709 6.004L2.93452 6C2.31828 6 1.86777 6.58425 2.03527 7.1725C3.5361 12.4405 6.61552 17.4522 12.1035 17.9956C12.6442 18.0489 13.1107 17.6135 13.1107 17.0745V15.3658C13.1107 14.8757 13.495 14.4545 13.9891 14.4421C14.0064 14.4416 14.0237 14.4416 14.041 14.4416C15.4926 14.4416 17.1182 16.5543 17.6869 17.5424C17.8504 17.8267 18.1561 18 18.4867 18H20.6962C21.3408 18 21.7545 17.3162 21.4439 16.7569Z" fill="#5C8EE6"></path>
  </symbol>
</svg>